<svg width="40" height="40" viewBox="0 0 40 40" fill="none" xmlns="http://www.w3.org/2000/svg">
<path d="M39.9817 37.5556L36.1666 10.8889C35.9758 9.77778 34.6405 8.88889 33.1145 8.88889H27.5826V6C27.5826 2.66667 24.149 0 19.9523 0C15.7557 0 12.3221 2.66667 12.3221 6V8.88889H6.8855C5.26407 8.88889 3.92878 9.77778 3.8334 10.8889L0.0182746 37.5556C-0.0771035 38.1481 0.209031 38.7407 0.685922 39.1852C1.25819 39.7037 2.11659 40 3.07038 40H36.9296C37.8834 40 38.7418 39.7037 39.3141 39.1852C39.791 38.7407 40.0771 38.1481 39.9817 37.5556ZM14.2296 6C14.2296 3.48148 16.8048 1.48148 19.9523 1.48148C23.0998 1.48148 25.675 3.48148 25.675 6V8.88889H14.2296V6ZM37.8834 38.2222C37.6926 38.4444 37.3111 38.5185 36.9296 38.5185H2.975C2.59348 38.5185 2.21197 38.3704 2.02122 38.2222C1.92584 38.1481 1.73508 37.9259 1.83046 37.7037L5.64559 11.037C5.74096 10.6667 6.21786 10.3704 6.79012 10.3704H12.3221V15.5556C12.3221 16 12.7036 16.2963 13.2758 16.2963C13.8481 16.2963 14.2296 16 14.2296 15.5556V10.3704H25.675V15.5556C25.675 16 26.0565 16.2963 26.6288 16.2963C27.2011 16.2963 27.5826 16 27.5826 15.5556V10.3704H33.0191C33.5914 10.3704 34.1637 10.6667 34.1637 11.037L37.9788 37.7037C38.0742 37.9259 37.9788 38.0741 37.8834 38.2222Z" fill="#0ABAB5"/>
</svg>
